<?xml version="1.0" encoding="UTF-8"?>
<svg xmlns="http://www.w3.org/2000/svg" xmlns:xlink="http://www.w3.org/1999/xlink" width="148px" height="36px" viewBox="0 0 271 59" version="1.1">
<g id="surface1">
<path style=" stroke:none;fill-rule:nonzero;fill:rgb(0%,0%,0%);fill-opacity:1;" d="M 131.449219 1.558594 C 138.644531 5.585938 141.992188 16.746094 145.324219 23.847656 C 146.355469 26.042969 147.414062 28.222656 148.472656 30.40625 C 149.339844 32.207031 150.167969 34.019531 150.980469 35.847656 C 152.179688 38.539062 153.5 41.207031 155.601562 43.316406 C 155.847656 43.316406 156.09375 43.316406 156.347656 43.316406 C 156.832031 42.296875 156.90625 41.46875 156.910156 40.34375 C 156.914062 40.085938 156.914062 40.085938 156.914062 39.824219 C 156.921875 39.253906 156.921875 38.683594 156.921875 38.113281 C 156.925781 37.703125 156.925781 37.292969 156.929688 36.882812 C 156.9375 35.773438 156.941406 34.660156 156.941406 33.550781 C 156.945312 32.390625 156.953125 31.226562 156.960938 30.066406 C 156.972656 27.867188 156.980469 25.664062 156.988281 23.464844 C 157 20.960938 157.011719 18.457031 157.023438 15.953125 C 157.046875 10.800781 157.070312 5.648438 157.089844 0.496094 C 160.285156 0.496094 163.480469 0.496094 166.769531 0.496094 C 166.78125 5.386719 166.789062 10.273438 166.796875 15.164062 C 166.796875 17.433594 166.800781 19.703125 166.808594 21.976562 C 166.8125 23.957031 166.816406 25.9375 166.816406 27.917969 C 166.816406 28.964844 166.816406 30.011719 166.820312 31.058594 C 166.871094 46.222656 166.871094 46.222656 162.515625 50.863281 C 160.3125 52.867188 157.996094 53.195312 155.105469 53.0625 C 152.234375 52.855469 149.84375 51.617188 147.878906 49.523438 C 144.019531 44.8125 141.5 38.851562 138.988281 33.34375 C 137.816406 30.777344 136.589844 28.242188 135.351562 25.707031 C 134.269531 23.484375 133.207031 21.253906 132.183594 19.003906 C 130.207031 14.085938 130.207031 14.085938 126.8125 10.207031 C 126.648438 10.207031 126.488281 10.207031 126.316406 10.207031 C 125.292969 12.402344 125.53125 14.933594 125.523438 17.300781 C 125.519531 17.691406 125.515625 18.082031 125.515625 18.472656 C 125.507812 19.527344 125.503906 20.582031 125.496094 21.636719 C 125.492188 22.742188 125.484375 23.847656 125.480469 24.949219 C 125.464844 27.039062 125.457031 29.128906 125.445312 31.214844 C 125.433594 33.59375 125.417969 35.972656 125.40625 38.351562 C 125.378906 43.242188 125.351562 48.132812 125.324219 53.023438 C 122.214844 53.023438 119.101562 53.023438 115.894531 53.023438 C 115.882812 47.992188 115.875 42.960938 115.867188 37.929688 C 115.867188 35.59375 115.863281 33.257812 115.855469 30.921875 C 115.851562 28.882812 115.847656 26.84375 115.847656 24.808594 C 115.847656 23.730469 115.847656 22.652344 115.84375 21.574219 C 115.839844 20.558594 115.835938 19.539062 115.839844 18.523438 C 115.839844 18.152344 115.835938 17.78125 115.835938 17.410156 C 115.808594 12.019531 116.515625 6.617188 120.296875 2.492188 C 123.320312 -0.214844 127.933594 -0.09375 131.449219 1.558594 Z M 131.449219 1.558594 "/>
<path style=" stroke:none;fill-rule:nonzero;fill:rgb(0%,0%,0%);fill-opacity:1;" d="M 64.027344 0.496094 C 67.875 0.476562 71.722656 0.457031 75.566406 0.445312 C 77.355469 0.441406 79.140625 0.433594 80.925781 0.421875 C 82.484375 0.414062 84.042969 0.40625 85.605469 0.402344 C 86.425781 0.402344 87.25 0.398438 88.074219 0.394531 C 93.851562 0.347656 98.53125 0.699219 102.929688 4.886719 C 106.371094 8.53125 107.375 12.71875 107.285156 17.574219 C 107.171875 20.332031 106.125 22.558594 104.726562 24.894531 C 104.589844 25.125 104.453125 25.355469 104.308594 25.59375 C 104.203125 25.773438 104.09375 25.953125 103.984375 26.140625 C 104.125 26.195312 104.265625 26.25 104.410156 26.304688 C 106.769531 27.691406 107.941406 31.007812 108.71875 33.460938 C 109.777344 37.605469 109.050781 41.808594 107.066406 45.542969 C 104.855469 49.25 101.613281 51.503906 97.53125 52.777344 C 96.558594 52.964844 95.636719 53.054688 94.648438 53.054688 C 94.238281 53.054688 94.238281 53.054688 93.824219 53.054688 C 93.382812 53.054688 93.382812 53.054688 92.933594 53.054688 C 92.621094 53.054688 92.308594 53.054688 91.988281 53.054688 C 91.132812 53.054688 90.28125 53.050781 89.425781 53.050781 C 88.53125 53.050781 87.640625 53.050781 86.746094 53.046875 C 85.054688 53.046875 83.367188 53.046875 81.675781 53.042969 C 79.75 53.039062 77.824219 53.039062 75.902344 53.039062 C 71.945312 53.035156 67.984375 53.03125 64.027344 53.023438 C 64.011719 50.777344 63.996094 48.527344 63.988281 46.28125 C 63.984375 45.234375 63.980469 44.191406 63.972656 43.144531 C 63.964844 42.136719 63.957031 41.125 63.957031 40.113281 C 63.957031 39.730469 63.953125 39.347656 63.949219 38.964844 C 63.894531 33.800781 65.21875 29.9375 68.730469 26.109375 C 71.863281 23.03125 75.722656 22.085938 79.972656 22.070312 C 80.3125 22.066406 80.65625 22.0625 81 22.058594 C 82.078125 22.046875 83.15625 22.039062 84.238281 22.03125 C 85.488281 22.023438 86.742188 22.011719 87.992188 21.996094 C 88.492188 21.992188 88.988281 21.992188 89.484375 21.988281 C 92.859375 21.953125 92.859375 21.953125 95.792969 20.414062 C 96.972656 19.195312 97.558594 17.765625 97.625 16.074219 C 97.558594 14.339844 97.050781 12.679688 95.792969 11.453125 C 94.503906 10.558594 93.394531 10.179688 91.839844 10.167969 C 91.597656 10.164062 91.351562 10.164062 91.097656 10.160156 C 90.828125 10.160156 90.5625 10.15625 90.285156 10.15625 C 89.859375 10.152344 89.859375 10.152344 89.425781 10.148438 C 88.488281 10.140625 87.550781 10.132812 86.613281 10.128906 C 85.964844 10.121094 85.316406 10.117188 84.664062 10.113281 C 83.128906 10.101562 81.59375 10.089844 80.058594 10.078125 C 78.3125 10.066406 76.5625 10.050781 74.816406 10.039062 C 71.21875 10.011719 67.625 9.984375 64.027344 9.957031 C 64.027344 6.835938 64.027344 3.714844 64.027344 0.496094 Z M 74.855469 33.683594 C 74.613281 33.953125 74.613281 33.953125 74.367188 34.226562 C 73.167969 36.039062 73.398438 38.09375 73.425781 40.1875 C 73.429688 40.515625 73.429688 40.839844 73.433594 41.171875 C 73.441406 41.96875 73.449219 42.769531 73.457031 43.566406 C 76.234375 43.589844 79.011719 43.605469 81.789062 43.617188 C 83.078125 43.621094 84.367188 43.628906 85.65625 43.640625 C 86.902344 43.652344 88.144531 43.65625 89.390625 43.660156 C 89.867188 43.660156 90.339844 43.664062 90.8125 43.671875 C 91.480469 43.679688 92.148438 43.679688 92.8125 43.679688 C 93.105469 43.683594 93.105469 43.683594 93.402344 43.6875 C 95.085938 43.675781 96.5625 43.175781 97.863281 42.082031 C 97.992188 41.917969 98.125 41.757812 98.257812 41.589844 C 98.460938 41.347656 98.460938 41.347656 98.667969 41.101562 C 99.761719 39.472656 99.6875 37.75 99.515625 35.847656 C 99.027344 34.148438 97.941406 33.050781 96.492188 32.085938 C 94.894531 31.3125 93.105469 31.472656 91.371094 31.484375 C 90.992188 31.484375 90.609375 31.480469 90.226562 31.480469 C 89.429688 31.480469 88.632812 31.480469 87.832031 31.484375 C 86.816406 31.492188 85.796875 31.488281 84.78125 31.484375 C 83.992188 31.480469 83.203125 31.480469 82.417969 31.484375 C 82.042969 31.484375 81.667969 31.484375 81.292969 31.480469 C 78.679688 31.46875 76.675781 31.585938 74.855469 33.683594 Z M 74.855469 33.683594 "/>
<path style=" stroke:none;fill-rule:nonzero;fill:rgb(0%,0%,0%);fill-opacity:1;" d="M 218.660156 5.640625 C 224.261719 10.160156 227.722656 16.300781 228.734375 23.464844 C 229.335938 30.550781 227.773438 37.496094 223.351562 43.160156 C 223.023438 43.546875 222.691406 43.929688 222.359375 44.3125 C 222.191406 44.515625 222.023438 44.71875 221.851562 44.929688 C 217.769531 49.746094 211.6875 52.703125 205.484375 53.523438 C 204.390625 53.59375 203.304688 53.605469 202.210938 53.601562 C 201.914062 53.597656 201.621094 53.597656 201.316406 53.597656 C 195.164062 53.511719 189.292969 51.378906 184.636719 47.300781 C 184.472656 47.171875 184.308594 47.042969 184.140625 46.910156 C 179.199219 42.921875 176.148438 36.222656 175.382812 30.03125 C 174.589844 22.242188 176.867188 15.171875 181.679688 9.054688 C 190.875 -1.84375 207.621094 -2.945312 218.660156 5.640625 Z M 188.707031 15.664062 C 187.371094 17.363281 186.414062 19.148438 185.628906 21.160156 C 185.546875 21.363281 185.460938 21.570312 185.375 21.78125 C 183.988281 25.804688 184.722656 30.59375 186.5 34.339844 C 188.785156 38.863281 192.511719 41.960938 197.3125 43.574219 C 201.542969 44.722656 206.027344 44.253906 209.917969 42.257812 C 214.304688 39.703125 217.539062 35.820312 218.882812 30.871094 C 219.867188 26.46875 219.296875 22.15625 217.148438 18.171875 C 216.464844 17.121094 215.722656 16.144531 214.914062 15.1875 C 214.78125 15.023438 214.644531 14.859375 214.507812 14.691406 C 211.671875 11.558594 207.242188 9.6875 203.097656 9.398438 C 197.476562 9.167969 192.441406 11.460938 188.707031 15.664062 Z M 188.707031 15.664062 "/>
<path style=" stroke:none;fill-rule:nonzero;fill:rgb(84.705883%,12.156863%,18.039216%);fill-opacity:1;" d="M 261.683594 6.140625 C 266.796875 10.558594 270.296875 16.867188 271 23.648438 C 271.359375 30.863281 270.160156 38.015625 265.359375 43.695312 C 263.738281 45.46875 262.117188 47.246094 260.082031 48.542969 C 261.214844 50.953125 262.527344 53.246094 263.851562 55.550781 C 263.96875 55.757812 264.089844 55.964844 264.210938 56.175781 C 264.425781 56.546875 264.640625 56.917969 264.859375 57.289062 C 265.539062 58.449219 265.539062 58.449219 265.539062 59 C 261.9375 59 258.332031 59 254.621094 59 C 254.089844 58.066406 253.554688 57.132812 253.007812 56.167969 C 252.839844 55.875 252.671875 55.578125 252.496094 55.277344 C 252.367188 55.042969 252.234375 54.8125 252.101562 54.574219 C 251.898438 54.21875 251.898438 54.21875 251.691406 53.855469 C 251.394531 53.273438 251.394531 53.273438 251.394531 52.777344 C 251.183594 52.832031 250.972656 52.882812 250.753906 52.941406 C 246.0625 53.988281 241.105469 53.96875 236.503906 52.527344 C 236.25 52.449219 236.25 52.449219 235.992188 52.371094 C 232.59375 51.292969 229.609375 49.523438 226.824219 47.300781 C 226.96875 46.238281 227.609375 45.472656 228.207031 44.625 C 229.523438 42.703125 230.554688 40.691406 231.542969 38.585938 C 232.28125 38.921875 232.78125 39.292969 233.355469 39.863281 C 237 43.101562 241.453125 44.042969 246.183594 43.8125 C 244.398438 40.484375 242.597656 37.164062 240.714844 33.890625 C 240.585938 33.664062 240.457031 33.4375 240.324219 33.203125 C 240.207031 33.003906 240.09375 32.804688 239.976562 32.601562 C 239.730469 32.113281 239.730469 32.113281 239.730469 31.617188 C 243.335938 31.617188 246.9375 31.617188 250.648438 31.617188 C 252.324219 34.742188 252.324219 34.742188 252.847656 35.71875 C 253.585938 37.101562 254.332031 38.476562 255.117188 39.832031 C 258.742188 36.863281 260.652344 33.28125 261.320312 28.628906 C 261.671875 23.769531 260.234375 19.296875 257.273438 15.433594 C 254.292969 12.019531 249.929688 9.964844 245.433594 9.613281 C 240.953125 9.480469 236.40625 10.878906 233.0625 13.941406 C 232.871094 14.132812 232.683594 14.320312 232.488281 14.515625 C 232.039062 14.9375 232.039062 14.9375 231.542969 14.9375 C 231.46875 14.792969 231.398438 14.648438 231.320312 14.5 C 229.488281 10.828125 229.488281 10.828125 227.164062 7.457031 C 226.824219 6.96875 226.824219 6.96875 226.824219 6.222656 C 227.296875 5.796875 227.75 5.4375 228.269531 5.070312 C 228.421875 4.964844 228.574219 4.855469 228.734375 4.742188 C 231.585938 2.796875 234.886719 1.292969 238.242188 0.496094 C 238.472656 0.441406 238.707031 0.386719 238.945312 0.328125 C 247.066406 -1.242188 255.359375 0.828125 261.683594 6.140625 Z M 261.683594 6.140625 "/>
<path style=" stroke:none;fill-rule:nonzero;fill:rgb(0%,0%,0%);fill-opacity:1;" d="M 50.5625 2.023438 C 53.738281 4.707031 54.835938 8.703125 55.339844 12.695312 C 55.453125 14.078125 55.4375 15.464844 55.425781 16.851562 C 55.425781 17.25 55.425781 17.644531 55.425781 18.042969 C 55.425781 19.109375 55.421875 20.175781 55.417969 21.242188 C 55.414062 22.363281 55.410156 23.484375 55.410156 24.601562 C 55.410156 26.714844 55.402344 28.832031 55.394531 30.945312 C 55.386719 33.355469 55.382812 35.765625 55.378906 38.171875 C 55.371094 43.125 55.359375 48.074219 55.339844 53.023438 C 52.230469 53.023438 49.117188 53.023438 45.910156 53.023438 C 45.90625 51.84375 45.902344 50.664062 45.894531 49.449219 C 45.878906 45.550781 45.859375 41.652344 45.839844 37.757812 C 45.828125 35.394531 45.816406 33.03125 45.804688 30.667969 C 45.796875 28.605469 45.789062 26.546875 45.777344 24.484375 C 45.769531 23.394531 45.765625 22.304688 45.761719 21.214844 C 45.757812 20.1875 45.753906 19.15625 45.746094 18.128906 C 45.742188 17.753906 45.742188 17.378906 45.742188 17.003906 C 45.824219 13.410156 45.824219 13.410156 44.421875 10.207031 C 43.214844 9.804688 42.160156 9.792969 40.996094 10.316406 C 36.960938 12.558594 34.691406 16.996094 32.308594 20.761719 C 31.339844 22.300781 30.351562 23.824219 29.363281 25.347656 C 29.132812 25.699219 29.132812 25.699219 28.898438 26.058594 C 28.59375 26.523438 28.292969 26.988281 27.988281 27.453125 C 25.957031 30.570312 23.941406 33.695312 21.925781 36.824219 C 21.359375 37.703125 20.792969 38.582031 20.226562 39.457031 C 20 39.808594 19.769531 40.164062 19.542969 40.515625 C 19.089844 41.222656 18.632812 41.925781 18.179688 42.632812 C 18.007812 42.894531 18.007812 42.894531 17.835938 43.160156 C 17.609375 43.511719 17.382812 43.863281 17.15625 44.214844 C 16.578125 45.113281 16 46.011719 15.421875 46.90625 C 15.304688 47.089844 15.1875 47.273438 15.066406 47.460938 C 14.847656 47.804688 14.625 48.144531 14.40625 48.484375 C 14.195312 48.816406 13.976562 49.140625 13.753906 49.464844 C 13.371094 50.054688 13.371094 50.054688 13.082031 50.824219 C 12.621094 51.796875 12.261719 52.351562 11.414062 53.023438 C 9.539062 53.53125 7.503906 53.304688 5.582031 53.210938 C 5.042969 53.195312 4.503906 53.183594 3.960938 53.171875 C 2.640625 53.136719 1.320312 53.089844 0 53.023438 C 0.660156 51.8125 1.324219 50.617188 2.082031 49.460938 C 2.230469 49.234375 2.378906 49.003906 2.535156 48.765625 C 2.691406 48.527344 2.847656 48.292969 3.007812 48.046875 C 3.34375 47.539062 3.675781 47.027344 4.007812 46.519531 C 4.171875 46.269531 4.332031 46.023438 4.5 45.765625 C 5.132812 44.796875 5.761719 43.824219 6.390625 42.851562 C 6.5 42.679688 6.609375 42.511719 6.71875 42.339844 C 6.9375 42.003906 7.152344 41.667969 7.367188 41.332031 C 7.929688 40.457031 8.496094 39.585938 9.058594 38.710938 C 9.285156 38.359375 9.511719 38.003906 9.742188 37.652344 C 10.195312 36.949219 10.652344 36.242188 11.105469 35.535156 C 11.21875 35.363281 11.332031 35.1875 11.445312 35.007812 C 11.675781 34.65625 11.902344 34.300781 12.128906 33.949219 C 12.691406 33.074219 13.253906 32.203125 13.816406 31.332031 C 15.179688 29.21875 16.542969 27.109375 17.910156 25.003906 C 18.535156 24.039062 19.160156 23.074219 19.78125 22.105469 C 32.214844 2.71875 32.214844 2.71875 40.28125 0.496094 C 43.875 -0.1875 47.5 -0.152344 50.5625 2.023438 Z M 50.5625 2.023438 "/>
</g>
</svg>
